<?xml version="1.0" encoding="utf-8"?>
<!-- Generator: Adobe Illustrator 16.0.0, SVG Export Plug-In . SVG Version: 6.00 Build 0)  -->
<!DOCTYPE svg PUBLIC "-//W3C//DTD SVG 1.1//EN" "http://www.w3.org/Graphics/SVG/1.1/DTD/svg11.dtd">
<svg version="1.1" id="Layer_1" xmlns="http://www.w3.org/2000/svg" xmlns:xlink="http://www.w3.org/1999/xlink" x="0px" y="0px"
	 width="300px" height="72px" viewBox="0 0 300 72" enable-background="new 0 0 300 72" xml:space="preserve">
<g>
	<rect x="151" fill="none" width="151" height="72"/>
	<g id="Innovación_1_">
		<path fill="#FFE900" d="M156.316,24.932v-3.171h3.043v3.171H156.316z M156.316,39.629V26.683h3.043v12.946H156.316z"/>
		<path fill="#FFE900" d="M171.638,39.629h-3.044v-6.607c0-1.395-0.065-2.301-0.194-2.71c-0.132-0.413-0.343-0.728-0.636-0.958
			c-0.292-0.225-0.644-0.34-1.057-0.34c-0.527,0-1,0.163-1.419,0.488c-0.418,0.323-0.705,0.755-0.861,1.293
			c-0.156,0.536-0.231,1.525-0.231,2.974v5.86h-3.046V26.683h2.827v1.903c1.004-1.463,2.27-2.193,3.793-2.193
			c0.672,0,1.284,0.133,1.843,0.407c0.556,0.271,0.975,0.619,1.261,1.043c0.287,0.421,0.484,0.9,0.598,1.437
			c0.11,0.537,0.167,1.305,0.167,2.305V39.629z"/>
		<path fill="#FFE900" d="M183.881,39.629h-3.043v-6.607c0-1.395-0.066-2.301-0.194-2.71c-0.131-0.413-0.343-0.728-0.635-0.958
			c-0.293-0.225-0.644-0.34-1.057-0.34c-0.529,0-1.001,0.163-1.42,0.488c-0.419,0.323-0.706,0.755-0.86,1.293
			c-0.155,0.536-0.233,1.525-0.233,2.974v5.86h-3.044V26.683h2.827v1.903c1.003-1.463,2.27-2.193,3.793-2.193
			c0.672,0,1.285,0.133,1.842,0.407c0.555,0.271,0.976,0.619,1.262,1.043c0.286,0.421,0.482,0.9,0.597,1.437
			c0.11,0.537,0.166,1.305,0.166,2.305V39.629z"/>
		<path fill="#FFE900" d="M184.957,32.976c0-1.14,0.249-2.242,0.747-3.306s1.203-1.877,2.119-2.438
			c0.911-0.561,1.934-0.839,3.06-0.839c1.74,0,3.167,0.637,4.278,1.906c1.112,1.273,1.671,2.877,1.671,4.822
			c0,1.958-0.563,3.58-1.686,4.869c-1.124,1.287-2.537,1.931-4.241,1.931c-1.056,0-2.062-0.27-3.018-0.802
			c-0.958-0.536-1.686-1.324-2.184-2.36C185.206,35.722,184.957,34.46,184.957,32.976z M188.078,33.157
			c0,1.284,0.269,2.266,0.812,2.948c0.542,0.683,1.209,1.026,2.003,1.026c0.796,0,1.461-0.343,1.999-1.026
			c0.539-0.682,0.809-1.672,0.809-2.973c0-1.267-0.27-2.242-0.809-2.926c-0.538-0.683-1.203-1.024-1.999-1.024
			c-0.794,0-1.461,0.341-2.003,1.024C188.347,30.891,188.078,31.875,188.078,33.157z"/>
		<path fill="#FFE900" d="M201.068,39.629l-4.637-12.946h3.197l2.167,6.608l0.628,2.206c0.164-0.559,0.271-0.931,0.313-1.108
			c0.102-0.368,0.209-0.733,0.326-1.098l2.188-6.608h3.131l-4.572,12.946H201.068z"/>
		<path fill="#FFE900" d="M211.19,30.634l-2.764-0.563c0.311-1.249,0.845-2.177,1.604-2.776c0.758-0.602,1.885-0.901,3.38-0.901
			c1.357,0,2.368,0.18,3.033,0.541c0.664,0.361,1.133,0.823,1.405,1.378c0.269,0.559,0.404,1.579,0.404,3.066l-0.031,3.997
			c0,1.14,0.047,1.977,0.145,2.516c0.098,0.543,0.28,1.122,0.547,1.738h-3.011c-0.08-0.228-0.178-0.567-0.294-1.013
			c-0.05-0.203-0.086-0.336-0.107-0.402c-0.52,0.569-1.077,0.994-1.669,1.279c-0.592,0.286-1.223,0.428-1.896,0.428
			c-1.184,0-2.117-0.36-2.799-1.085c-0.684-0.722-1.024-1.636-1.024-2.742c0-0.73,0.154-1.383,0.465-1.955s0.746-1.011,1.307-1.317
			c0.559-0.306,1.366-0.57,2.422-0.8c1.423-0.298,2.407-0.579,2.957-0.841v-0.339c0-0.658-0.145-1.126-0.434-1.407
			s-0.833-0.421-1.637-0.421c-0.54,0-0.963,0.12-1.268,0.356C211.624,29.614,211.377,30.034,211.19,30.634z M215.264,33.415
			c-0.391,0.145-1.007,0.319-1.853,0.524c-0.845,0.202-1.397,0.4-1.657,0.597c-0.398,0.315-0.598,0.717-0.598,1.207
			c0,0.479,0.158,0.892,0.478,1.242c0.317,0.349,0.721,0.524,1.213,0.524c0.55,0,1.073-0.202,1.573-0.609
			c0.366-0.309,0.608-0.685,0.725-1.135c0.079-0.292,0.119-0.846,0.119-1.667V33.415z"/>
		<path fill="#FFE900" d="M229.956,30.509l-3.001,0.612c-0.102-0.674-0.33-1.182-0.688-1.522c-0.356-0.343-0.821-0.515-1.392-0.515
			c-0.759,0-1.364,0.296-1.814,0.885c-0.452,0.591-0.677,1.574-0.677,2.956c0,1.535,0.229,2.62,0.688,3.253
			c0.458,0.635,1.073,0.952,1.847,0.952c0.578,0,1.051-0.187,1.419-0.557c0.369-0.367,0.629-1.004,0.78-1.905l2.99,0.572
			c-0.311,1.543-0.906,2.71-1.787,3.498c-0.882,0.789-2.063,1.182-3.543,1.182c-1.684,0-3.024-0.598-4.026-1.793
			c-0.998-1.19-1.498-2.845-1.498-4.959c0-2.138,0.501-3.801,1.506-4.992c1.002-1.188,2.362-1.783,4.072-1.783
			c1.402,0,2.516,0.338,3.344,1.017C229.002,28.089,229.594,29.122,229.956,30.509z"/>
		<path fill="#FFE900" d="M230.934,24.932v-3.171h3.044v3.171H230.934z M230.934,39.629V26.683h3.044v12.946H230.934z"/>
		<path fill="#FFE900" d="M235.084,32.976c0-1.14,0.25-2.242,0.749-3.306c0.495-1.064,1.2-1.877,2.117-2.438
			c0.913-0.561,1.933-0.839,3.06-0.839c1.742,0,3.167,0.637,4.279,1.906c1.112,1.273,1.669,2.877,1.669,4.822
			c0,1.958-0.562,3.58-1.685,4.869c-1.122,1.287-2.536,1.931-4.242,1.931c-1.055,0-2.06-0.27-3.016-0.802
			c-0.958-0.536-1.688-1.324-2.183-2.36C235.334,35.722,235.084,34.46,235.084,32.976z M238.204,33.157
			c0,1.284,0.271,2.266,0.813,2.948c0.541,0.683,1.208,1.026,2.003,1.026c0.794,0,1.46-0.343,1.999-1.026
			c0.539-0.682,0.809-1.672,0.809-2.973c0-1.267-0.27-2.242-0.809-2.926c-0.539-0.683-1.205-1.024-1.999-1.024
			c-0.795,0-1.462,0.341-2.003,1.024C238.475,30.891,238.204,31.875,238.204,33.157z M239.483,25.102l1.494-3.645h3.414
			l-2.981,3.645H239.483z"/>
		<path fill="#FFE900" d="M258.501,39.629h-3.046v-6.607c0-1.395-0.065-2.301-0.195-2.71c-0.132-0.413-0.341-0.728-0.635-0.958
			c-0.292-0.225-0.646-0.34-1.056-0.34c-0.527,0-1.002,0.163-1.42,0.488c-0.419,0.323-0.706,0.755-0.86,1.293
			c-0.155,0.536-0.233,1.525-0.233,2.974v5.86h-3.044V26.683h2.826v1.903c1.006-1.463,2.27-2.193,3.793-2.193
			c0.672,0,1.287,0.133,1.842,0.407c0.558,0.271,0.978,0.619,1.263,1.043c0.283,0.421,0.482,0.9,0.596,1.437
			c0.112,0.537,0.17,1.305,0.17,2.305V39.629z"/>
	</g>
	<g id="Arquitectónica_1_">
		<path fill="#FFFFFF" d="M159.395,52.182l-2.763-0.561c0.31-1.253,0.844-2.178,1.603-2.778c0.759-0.602,1.886-0.904,3.381-0.904
			c1.357,0,2.368,0.183,3.033,0.543c0.665,0.363,1.133,0.821,1.405,1.377c0.269,0.556,0.404,1.578,0.404,3.065l-0.032,3.996
			c0,1.139,0.048,1.978,0.146,2.517c0.098,0.543,0.279,1.122,0.546,1.738h-3.012c-0.08-0.225-0.176-0.562-0.29-1.011
			c-0.052-0.203-0.089-0.336-0.111-0.4c-0.52,0.568-1.076,0.993-1.669,1.28c-0.592,0.283-1.223,0.425-1.895,0.425
			c-1.185,0-2.118-0.36-2.801-1.084c-0.683-0.727-1.024-1.637-1.024-2.742c0-0.733,0.155-1.386,0.465-1.958
			c0.311-0.572,0.747-1.012,1.308-1.317c0.56-0.303,1.365-0.57,2.421-0.795c1.424-0.301,2.409-0.584,2.959-0.841V52.39
			c0-0.658-0.146-1.13-0.434-1.407c-0.29-0.283-0.833-0.424-1.637-0.424c-0.542,0-0.965,0.121-1.267,0.361
			C159.828,51.158,159.582,51.579,159.395,52.182z M163.469,54.961c-0.391,0.145-1.009,0.318-1.854,0.523
			c-0.846,0.204-1.397,0.402-1.658,0.595c-0.398,0.32-0.596,0.724-0.596,1.209c0,0.48,0.158,0.895,0.478,1.244
			c0.317,0.349,0.721,0.523,1.214,0.523c0.548,0,1.072-0.202,1.569-0.608c0.369-0.313,0.61-0.688,0.726-1.136
			c0.08-0.292,0.121-0.848,0.121-1.671V54.961z"/>
		<path fill="#FFFFFF" d="M171.042,61.175h-3.043V48.231h2.827v1.843c0.482-0.87,0.918-1.445,1.304-1.719
			c0.388-0.278,0.826-0.417,1.317-0.417c0.694,0,1.361,0.218,2.006,0.647l-0.942,2.984c-0.514-0.372-0.991-0.562-1.431-0.562
			c-0.427,0-0.788,0.137-1.085,0.398c-0.296,0.266-0.529,0.742-0.699,1.433c-0.169,0.689-0.254,2.137-0.254,4.336V61.175z"/>
		<path fill="#FFFFFF" d="M182.951,66.103v-6.51c-0.398,0.576-0.893,1.032-1.484,1.368c-0.592,0.339-1.231,0.508-1.918,0.508
			c-1.307,0-2.384-0.554-3.228-1.656c-0.997-1.294-1.496-3.044-1.496-5.255c0-2.079,0.467-3.702,1.402-4.869
			c0.936-1.165,2.096-1.75,3.484-1.75c0.764,0,1.428,0.186,1.989,0.548c0.559,0.367,1.054,0.92,1.488,1.659v-1.914h2.807v17.871
			H182.951z M183.049,54.547c0-1.327-0.241-2.309-0.723-2.957c-0.479-0.647-1.08-0.968-1.804-0.968
			c-0.735,0-1.352,0.328-1.846,0.986c-0.495,0.659-0.742,1.7-0.742,3.132c0,1.423,0.238,2.449,0.715,3.078
			c0.477,0.631,1.065,0.945,1.767,0.945c0.698,0,1.313-0.354,1.841-1.062C182.784,56.996,183.049,55.944,183.049,54.547z"/>
		<path fill="#FFFFFF" d="M195.25,61.175V59.24c-0.42,0.688-0.971,1.233-1.652,1.632c-0.684,0.396-1.404,0.597-2.162,0.597
			c-0.772,0-1.466-0.19-2.08-0.574c-0.614-0.379-1.058-0.917-1.332-1.606c-0.275-0.691-0.413-1.646-0.413-2.866v-8.19h3.044v5.948
			c0,1.821,0.058,2.934,0.169,3.347c0.113,0.409,0.316,0.736,0.612,0.976s0.672,0.358,1.127,0.358c0.521,0,0.986-0.161,1.396-0.479
			c0.412-0.322,0.694-0.722,0.847-1.195c0.151-0.477,0.227-1.642,0.227-3.494v-5.46h3.045v12.943H195.25z"/>
		<path fill="#FFFFFF" d="M199.921,46.479v-3.17h3.044v3.17H199.921z M199.921,61.175V48.231h3.044v12.943H199.921z"/>
		<path fill="#FFFFFF" d="M210.054,48.231v2.729h-2.08v5.218c0,1.057,0.019,1.67,0.06,1.849c0.037,0.171,0.129,0.315,0.27,0.429
			c0.142,0.116,0.313,0.173,0.515,0.173c0.281,0,0.689-0.11,1.226-0.328l0.26,2.656c-0.707,0.34-1.511,0.512-2.406,0.512
			c-0.55,0-1.043-0.104-1.484-0.31c-0.439-0.207-0.764-0.476-0.97-0.805c-0.205-0.329-0.349-0.774-0.427-1.337
			c-0.066-0.396-0.098-1.202-0.098-2.414v-5.643h-1.399v-2.729h1.399V45.66l3.056-1.997v4.568H210.054z"/>
		<path fill="#FFFFFF" d="M217.496,57.057l3.035,0.572c-0.389,1.252-1.006,2.203-1.848,2.858c-0.842,0.652-1.895,0.981-3.159,0.981
			c-2,0-3.48-0.734-4.44-2.206c-0.759-1.177-1.138-2.665-1.138-4.461c0-2.148,0.498-3.826,1.495-5.042
			c0.994-1.214,2.257-1.821,3.782-1.821c1.711,0,3.061,0.637,4.051,1.908c0.989,1.271,1.463,3.22,1.419,5.845h-7.626
			c0.021,1.016,0.265,1.804,0.735,2.369c0.47,0.565,1.054,0.849,1.755,0.849c0.478,0,0.878-0.146,1.202-0.439
			C217.085,58.176,217.331,57.704,217.496,57.057z M217.671,53.596c-0.022-0.99-0.25-1.745-0.684-2.262
			c-0.433-0.517-0.96-0.775-1.581-0.775c-0.666,0-1.215,0.274-1.646,0.817c-0.433,0.546-0.646,1.284-0.638,2.22H217.671z"/>
		<path fill="#FFFFFF" d="M231.875,52.06l-3,0.61c-0.102-0.677-0.33-1.185-0.688-1.524c-0.356-0.342-0.822-0.513-1.393-0.513
			c-0.757,0-1.362,0.296-1.813,0.882c-0.452,0.589-0.678,1.576-0.678,2.959c0,1.535,0.229,2.62,0.688,3.252
			c0.459,0.634,1.073,0.951,1.849,0.951c0.577,0,1.05-0.185,1.418-0.555c0.368-0.369,0.63-1.006,0.782-1.907l2.988,0.575
			c-0.311,1.542-0.905,2.709-1.787,3.497c-0.881,0.789-2.062,1.182-3.543,1.182c-1.683,0-3.024-0.597-4.026-1.792
			c-0.999-1.193-1.499-2.848-1.499-4.958c0-2.14,0.501-3.804,1.507-4.994c1.002-1.189,2.36-1.786,4.073-1.786
			c1.399,0,2.515,0.341,3.34,1.02C230.92,49.633,231.514,50.67,231.875,52.06z"/>
		<path fill="#FFFFFF" d="M238.128,48.231v2.729h-2.08v5.218c0,1.057,0.02,1.67,0.061,1.849c0.04,0.171,0.129,0.315,0.272,0.429
			c0.14,0.116,0.311,0.173,0.513,0.173c0.281,0,0.689-0.11,1.224-0.328l0.261,2.656c-0.708,0.34-1.51,0.512-2.405,0.512
			c-0.548,0-1.044-0.104-1.484-0.31c-0.44-0.207-0.764-0.476-0.97-0.805s-0.349-0.774-0.428-1.337
			c-0.065-0.396-0.097-1.202-0.097-2.414v-5.643h-1.398v-2.729h1.398V45.66l3.054-1.997v4.568H238.128z"/>
		<path fill="#FFFFFF" d="M238.205,54.521c0-1.137,0.251-2.237,0.749-3.303s1.203-1.877,2.118-2.438
			c0.913-0.562,1.935-0.842,3.061-0.842c1.74,0,3.167,0.637,4.28,1.908c1.11,1.271,1.668,2.881,1.668,4.82
			c0,1.957-0.562,3.583-1.684,4.869c-1.125,1.289-2.539,1.933-4.243,1.933c-1.056,0-2.061-0.269-3.018-0.804
			c-0.957-0.538-1.685-1.324-2.183-2.357C238.456,57.271,238.205,56.009,238.205,54.521z M241.326,54.705
			c0,1.282,0.271,2.265,0.812,2.948s1.211,1.023,2.005,1.023s1.46-0.34,1.998-1.023c0.539-0.684,0.809-1.673,0.809-2.971
			c0-1.271-0.27-2.245-0.809-2.926c-0.538-0.686-1.204-1.024-1.998-1.024s-1.464,0.339-2.005,1.024
			C241.598,52.438,241.326,53.418,241.326,54.705z M242.605,46.646l1.494-3.644h3.413l-2.979,3.644H242.605z"/>
		<path fill="#FFFFFF" d="M261.622,61.175h-3.046v-6.603c0-1.399-0.064-2.304-0.194-2.715c-0.13-0.408-0.343-0.728-0.635-0.958
			c-0.291-0.225-0.645-0.341-1.056-0.341c-0.527,0-1.001,0.164-1.421,0.488c-0.418,0.325-0.705,0.756-0.861,1.291
			c-0.154,0.538-0.232,1.528-0.232,2.975v5.862h-3.044V48.231h2.827v1.9c1.005-1.461,2.269-2.193,3.792-2.193
			c0.672,0,1.285,0.136,1.842,0.407c0.556,0.276,0.979,0.624,1.264,1.045c0.285,0.422,0.481,0.901,0.596,1.438
			c0.11,0.537,0.169,1.303,0.169,2.304V61.175z"/>
		<path fill="#FFFFFF" d="M263.399,46.479v-3.17h3.045v3.17H263.399z M263.399,61.175V48.231h3.045v12.943H263.399z"/>
		<path fill="#FFFFFF" d="M278.288,52.06l-3.002,0.61c-0.101-0.677-0.328-1.185-0.688-1.524c-0.356-0.342-0.82-0.513-1.391-0.513
			c-0.76,0-1.365,0.296-1.814,0.882c-0.452,0.589-0.678,1.576-0.678,2.959c0,1.535,0.228,2.62,0.688,3.252
			c0.459,0.634,1.074,0.951,1.847,0.951c0.578,0,1.051-0.185,1.419-0.555c0.369-0.369,0.63-1.006,0.78-1.907l2.991,0.575
			c-0.312,1.542-0.907,2.709-1.787,3.497c-0.882,0.789-2.063,1.182-3.544,1.182c-1.683,0-3.024-0.597-4.025-1.792
			c-0.999-1.193-1.499-2.848-1.499-4.958c0-2.14,0.501-3.804,1.505-4.994c1.003-1.189,2.361-1.786,4.075-1.786
			c1.399,0,2.514,0.341,3.341,1.02C277.333,49.633,277.925,50.67,278.288,52.06z"/>
		<path fill="#FFFFFF" d="M281.54,52.182l-2.764-0.561c0.312-1.253,0.845-2.178,1.604-2.778c0.758-0.602,1.885-0.904,3.379-0.904
			c1.358,0,2.369,0.183,3.034,0.543c0.666,0.363,1.133,0.821,1.404,1.377c0.271,0.556,0.405,1.578,0.405,3.065l-0.032,3.996
			c0,1.139,0.049,1.978,0.145,2.517c0.099,0.543,0.28,1.122,0.549,1.738h-3.014c-0.078-0.225-0.177-0.562-0.291-1.011
			c-0.051-0.203-0.087-0.336-0.109-0.4c-0.518,0.568-1.075,0.993-1.667,1.28c-0.593,0.283-1.226,0.425-1.895,0.425
			c-1.188,0-2.12-0.36-2.803-1.084c-0.682-0.727-1.024-1.637-1.024-2.742c0-0.733,0.156-1.386,0.466-1.958
			c0.312-0.572,0.747-1.012,1.307-1.317c0.559-0.303,1.366-0.57,2.422-0.795c1.421-0.301,2.407-0.584,2.957-0.841V52.39
			c0-0.658-0.145-1.13-0.434-1.407c-0.288-0.283-0.833-0.424-1.636-0.424c-0.541,0-0.964,0.121-1.268,0.361
			C281.972,51.158,281.727,51.579,281.54,52.182z M285.613,54.961c-0.39,0.145-1.007,0.318-1.854,0.523
			c-0.846,0.204-1.396,0.402-1.657,0.595c-0.396,0.32-0.595,0.724-0.595,1.209c0,0.48,0.157,0.895,0.475,1.244
			c0.318,0.349,0.723,0.523,1.215,0.523c0.549,0,1.072-0.202,1.571-0.608c0.368-0.313,0.608-0.688,0.725-1.136
			c0.079-0.292,0.12-0.848,0.12-1.671V54.961z"/>
	</g>
	<rect id="Fondo_1_" x="-0.25" y="0.09" fill="#717271" width="150.82" height="71.819"/>
	<path fill="#FFFFFF" d="M79.077,43.222c0.32,3.1,1.073,5.348,2.261,6.734c1.508,1.714,3.541,2.568,6.099,2.568
		c4.34,0,7.083-2.337,8.226-7.01h9.662c-0.822,5.045-2.902,8.934-6.236,11.664c-3.153,2.638-7.059,3.958-11.717,3.958
		c-5.21,0-9.595-1.806-13.159-5.415c-2.192-2.226-3.61-5.069-4.25-8.541c-0.366-2.038-0.547-5.765-0.547-11.18
		c0-5.417,0.181-9.143,0.547-11.179c0.64-3.471,2.058-6.321,4.25-8.543c3.564-3.609,7.949-5.415,13.159-5.415
		c4.703,0,8.667,1.342,11.89,4.029c3.221,2.687,5.241,6.55,6.063,11.595h-9.662c-1.142-4.674-3.885-7.013-8.226-7.013
		c-2.876,0-5.095,1.091-6.647,3.265c-1.233,1.758-1.85,6.179-1.85,13.262C78.94,39.842,78.985,42.251,79.077,43.222"/>
	<path fill="#FFFFFF" d="M119.888,43.222c-0.092-0.835-0.135-3.241-0.135-7.221c0-3.982,0.043-6.389,0.135-7.222
		c0.271-3.055,0.993-5.278,2.171-6.667c1.536-1.758,3.547-2.638,6.032-2.638c4.656,0,7.546,2.411,8.679,7.223h9.492
		c-0.725-4.536-2.509-8.217-5.354-11.042c-3.295-3.196-7.566-4.792-12.805-4.792c-5.149,0-9.485,1.806-13.009,5.415
		c-2.169,2.222-3.568,5.072-4.201,8.543c-0.36,2.036-0.542,5.762-0.542,11.179c0,5.416,0.181,9.142,0.542,11.18
		c0.631,3.472,2.028,6.315,4.193,8.541c3.514,3.609,7.843,5.415,12.984,5.415c5.546,0,10.075-1.88,13.591-5.638
		c3.066-3.295,4.6-8.331,4.6-15.108v-7.238h-18.19v8.123h8.859v1.877c0,2.776-0.724,4.976-2.166,6.597
		c-1.624,1.85-3.854,2.775-6.693,2.775c-2.528,0-4.531-0.854-6.021-2.568C120.879,48.569,120.158,46.321,119.888,43.222"/>
</g>
</svg>
