<?xml version="1.0" encoding="utf-8"?>
<!-- Generator: Adobe Illustrator 16.0.0, SVG Export Plug-In . SVG Version: 6.00 Build 0)  -->
<!DOCTYPE svg PUBLIC "-//W3C//DTD SVG 1.1//EN" "http://www.w3.org/Graphics/SVG/1.1/DTD/svg11.dtd">
<svg version="1.1" id="Layer_1" xmlns="http://www.w3.org/2000/svg" xmlns:xlink="http://www.w3.org/1999/xlink" x="0px" y="0px"
	 width="420px" height="100px" viewBox="0 0 420 100" enable-background="new 0 0 420 100" xml:space="preserve">
<g>
	<rect x="210" fill="none" width="210" height="100"/>
	<g id="Innovación_2_">
		<path fill="#FFE900" d="M217,34.589v-4.416h4.237v4.416H217z M217,55.053V37.026h4.237v18.026H217z"/>
		<path fill="#FFE900" d="M238.334,55.053h-4.239v-9.2c0-1.942-0.091-3.203-0.271-3.773c-0.184-0.575-0.477-1.014-0.885-1.334
			c-0.406-0.313-0.896-0.474-1.472-0.474c-0.733,0-1.392,0.227-1.975,0.679c-0.583,0.45-0.982,1.052-1.2,1.801
			c-0.217,0.747-0.322,2.124-0.322,4.141v8.16h-4.24V37.026h3.937v2.65c1.397-2.038,3.159-3.053,5.281-3.053
			c0.935,0,1.788,0.186,2.565,0.567c0.773,0.378,1.357,0.861,1.756,1.453c0.399,0.586,0.674,1.253,0.831,2
			c0.154,0.748,0.233,1.817,0.233,3.209V55.053z"/>
		<path fill="#FFE900" d="M255.381,55.053h-4.237v-9.2c0-1.942-0.093-3.203-0.271-3.773c-0.182-0.575-0.477-1.014-0.884-1.334
			c-0.407-0.313-0.896-0.474-1.471-0.474c-0.737,0-1.394,0.227-1.978,0.679c-0.583,0.45-0.982,1.052-1.197,1.801
			c-0.217,0.747-0.326,2.124-0.326,4.141v8.16h-4.238V37.026h3.938v2.65c1.396-2.038,3.159-3.053,5.28-3.053
			c0.936,0,1.79,0.186,2.565,0.567c0.771,0.378,1.357,0.861,1.756,1.453c0.398,0.586,0.672,1.253,0.832,2
			c0.152,0.748,0.23,1.817,0.23,3.209V55.053z"/>
		<path fill="#FFE900" d="M256.88,45.79c0-1.587,0.347-3.121,1.039-4.603c0.694-1.481,1.676-2.614,2.951-3.395
			c1.269-0.781,2.692-1.168,4.261-1.168c2.422,0,4.409,0.886,5.957,2.653c1.548,1.773,2.326,4.006,2.326,6.714
			c0,2.726-0.785,4.985-2.348,6.78c-1.564,1.792-3.532,2.688-5.904,2.688c-1.471,0-2.871-0.375-4.202-1.116
			c-1.334-0.746-2.347-1.844-3.041-3.286C257.227,49.613,256.88,47.855,256.88,45.79z M261.225,46.042
			c0,1.789,0.375,3.155,1.131,4.105c0.754,0.951,1.683,1.428,2.788,1.428c1.108,0,2.034-0.477,2.784-1.428
			c0.75-0.95,1.125-2.329,1.125-4.14c0-1.764-0.375-3.121-1.125-4.074c-0.75-0.951-1.676-1.425-2.784-1.425
			c-1.105,0-2.034,0.474-2.788,1.425C261.6,42.886,261.225,44.256,261.225,46.042z"/>
		<path fill="#FFE900" d="M279.312,55.053l-6.456-18.026h4.452l3.017,9.201l0.874,3.072c0.229-0.778,0.377-1.296,0.438-1.543
			c0.142-0.512,0.291-1.021,0.453-1.529l3.047-9.201h4.359l-6.367,18.026H279.312z"/>
		<path fill="#FFE900" d="M293.406,42.528l-3.848-0.784c0.432-1.738,1.176-3.031,2.234-3.866c1.055-0.838,2.623-1.255,4.705-1.255
			c1.891,0,3.298,0.25,4.224,0.752c0.925,0.502,1.577,1.146,1.956,1.919c0.375,0.778,0.563,2.198,0.563,4.269l-0.044,5.565
			c0,1.587,0.066,2.752,0.201,3.503c0.137,0.756,0.391,1.562,0.762,2.42h-4.191c-0.111-0.316-0.248-0.79-0.409-1.41
			c-0.069-0.282-0.12-0.468-0.149-0.561c-0.725,0.793-1.5,1.385-2.324,1.782s-1.703,0.595-2.641,0.595
			c-1.648,0-2.948-0.502-3.897-1.51c-0.951-1.006-1.427-2.278-1.427-3.818c0-1.017,0.216-1.926,0.648-2.723
			c0.432-0.797,1.038-1.408,1.818-1.834c0.778-0.425,1.902-0.793,3.372-1.113c1.981-0.416,3.353-0.806,4.118-1.171v-0.473
			c0-0.917-0.202-1.568-0.604-1.959c-0.402-0.39-1.16-0.585-2.279-0.585c-0.752,0-1.341,0.167-1.765,0.496
			C294.01,41.108,293.666,41.692,293.406,42.528z M299.078,46.4c-0.544,0.202-1.402,0.444-2.58,0.729
			c-1.176,0.282-1.945,0.558-2.307,0.832c-0.555,0.439-0.832,0.999-0.832,1.68c0,0.666,0.22,1.242,0.664,1.729
			c0.441,0.486,1.004,0.729,1.689,0.729c0.766,0,1.494-0.282,2.189-0.848c0.511-0.43,0.848-0.954,1.01-1.581
			c0.109-0.406,0.166-1.178,0.166-2.321V46.4z"/>
		<path fill="#FFE900" d="M319.535,42.355l-4.179,0.852c-0.142-0.938-0.46-1.646-0.958-2.12c-0.497-0.477-1.145-0.716-1.938-0.716
			c-1.057,0-1.899,0.413-2.527,1.231c-0.629,0.823-0.941,2.192-0.941,4.116c0,2.137,0.317,3.648,0.957,4.53
			c0.638,0.884,1.494,1.325,2.571,1.325c0.805,0,1.463-0.26,1.976-0.774c0.514-0.512,0.876-1.398,1.087-2.653l4.163,0.797
			c-0.433,2.148-1.262,3.773-2.488,4.871c-1.228,1.098-2.873,1.645-4.934,1.645c-2.344,0-4.211-0.832-5.605-2.496
			c-1.391-1.657-2.086-3.961-2.086-6.906c0-2.976,0.697-5.292,2.096-6.951c1.396-1.653,3.29-2.483,5.671-2.483
			c1.952,0,3.502,0.471,4.655,1.416C318.207,38.985,319.031,40.423,319.535,42.355z"/>
		<path fill="#FFE900" d="M320.896,34.589v-4.416h4.238v4.416H320.896z M320.896,55.053V37.026h4.238v18.026H320.896z"/>
		<path fill="#FFE900" d="M326.676,45.79c0-1.587,0.348-3.121,1.042-4.603c0.69-1.481,1.672-2.614,2.948-3.395
			c1.271-0.781,2.691-1.168,4.26-1.168c2.426,0,4.41,0.886,5.959,2.653c1.549,1.773,2.324,4.006,2.324,6.714
			c0,2.726-0.784,4.985-2.346,6.78c-1.562,1.792-3.531,2.688-5.907,2.688c-1.468,0-2.868-0.375-4.199-1.116
			c-1.334-0.746-2.349-1.844-3.039-3.286C327.023,49.613,326.676,47.855,326.676,45.79z M331.02,46.042
			c0,1.789,0.377,3.155,1.133,4.105c0.754,0.951,1.683,1.428,2.789,1.428c1.105,0,2.033-0.477,2.783-1.428
			c0.75-0.95,1.126-2.329,1.126-4.14c0-1.764-0.376-3.121-1.126-4.074c-0.75-0.951-1.678-1.425-2.783-1.425
			c-1.106,0-2.035,0.474-2.789,1.425C331.396,42.886,331.02,44.256,331.02,46.042z M332.801,34.825l2.08-5.075h4.754l-4.15,5.075
			H332.801z"/>
		<path fill="#FFE900" d="M359.28,55.053h-4.241v-9.2c0-1.942-0.091-3.203-0.271-3.773c-0.184-0.575-0.475-1.014-0.884-1.334
			c-0.406-0.313-0.899-0.474-1.47-0.474c-0.734,0-1.395,0.227-1.977,0.679c-0.584,0.45-0.983,1.052-1.199,1.801
			c-0.215,0.747-0.324,2.124-0.324,4.141v8.16h-4.238V37.026h3.936v2.65c1.4-2.038,3.16-3.053,5.281-3.053
			c0.936,0,1.791,0.186,2.564,0.567c0.775,0.378,1.36,0.861,1.758,1.453c0.395,0.586,0.672,1.253,0.829,2
			c0.157,0.748,0.236,1.817,0.236,3.209V55.053z"/>
	</g>
	<g id="Arquitectónica_2_">
		<path fill="#FFFFFF" d="M221.287,72.531l-3.848-0.781c0.432-1.744,1.176-3.032,2.231-3.868c1.057-0.838,2.626-1.259,4.708-1.259
			c1.89,0,3.297,0.254,4.223,0.756c0.927,0.506,1.578,1.144,1.957,1.917c0.374,0.774,0.562,2.198,0.562,4.269l-0.045,5.564
			c0,1.585,0.067,2.753,0.205,3.504c0.135,0.756,0.389,1.562,0.76,2.42h-4.193c-0.111-0.312-0.245-0.783-0.404-1.407
			c-0.072-0.282-0.123-0.468-0.154-0.558c-0.725,0.791-1.499,1.383-2.324,1.783c-0.824,0.394-1.703,0.592-2.638,0.592
			c-1.649,0-2.949-0.502-3.9-1.51c-0.95-1.012-1.427-2.279-1.427-3.818c0-1.021,0.217-1.93,0.648-2.727s1.039-1.408,1.82-1.834
			c0.778-0.422,1.9-0.794,3.37-1.107c1.982-0.418,3.354-0.812,4.12-1.17V72.82c0-0.916-0.202-1.572-0.604-1.959
			c-0.404-0.395-1.16-0.59-2.279-0.59c-0.754,0-1.343,0.168-1.764,0.503C221.891,71.105,221.548,71.692,221.287,72.531z
			 M226.959,76.4c-0.544,0.201-1.404,0.444-2.58,0.729c-1.178,0.284-1.946,0.561-2.309,0.828c-0.555,0.446-0.83,1.007-0.83,1.683
			c0,0.67,0.221,1.246,0.665,1.732c0.442,0.486,1.003,0.729,1.689,0.729c0.764,0,1.493-0.282,2.186-0.847
			c0.514-0.437,0.851-0.958,1.011-1.582c0.111-0.406,0.168-1.181,0.168-2.326V76.4z"/>
		<path fill="#FFFFFF" d="M237.504,85.053h-4.237V67.031h3.937v2.565c0.672-1.212,1.279-2.013,1.816-2.394
			c0.539-0.387,1.15-0.58,1.834-0.58c0.967,0,1.896,0.303,2.793,0.901l-1.312,4.155c-0.715-0.518-1.38-0.781-1.992-0.781
			c-0.594,0-1.098,0.189-1.511,0.555c-0.412,0.369-0.737,1.033-0.974,1.994c-0.235,0.96-0.354,2.976-0.354,6.038V85.053z"/>
		<path fill="#FFFFFF" d="M254.086,91.914V82.85c-0.554,0.803-1.242,1.438-2.066,1.906c-0.824,0.471-1.715,0.707-2.671,0.707
			c-1.819,0-3.319-0.771-4.494-2.307c-1.388-1.802-2.083-4.238-2.083-7.316c0-2.896,0.65-5.155,1.953-6.78
			c1.303-1.622,2.918-2.437,4.852-2.437c1.063,0,1.988,0.258,2.77,0.763c0.777,0.512,1.467,1.28,2.072,2.31v-2.664h3.908v24.883
			H254.086z M254.223,75.824c0-1.848-0.336-3.215-1.006-4.117c-0.668-0.901-1.505-1.348-2.512-1.348
			c-1.024,0-1.883,0.457-2.57,1.373c-0.689,0.918-1.033,2.367-1.033,4.361c0,1.98,0.332,3.41,0.995,4.285
			c0.663,0.879,1.483,1.317,2.46,1.317c0.973,0,1.829-0.493,2.562-1.479C253.854,79.234,254.223,77.771,254.223,75.824z"/>
		<path fill="#FFFFFF" d="M271.211,85.053v-2.693c-0.584,0.959-1.352,1.718-2.301,2.271c-0.951,0.553-1.955,0.832-3.01,0.832
			c-1.076,0-2.041-0.266-2.896-0.8c-0.855-0.528-1.473-1.277-1.855-2.237c-0.383-0.963-0.574-2.291-0.574-3.99V67.031h4.238v8.281
			c0,2.537,0.08,4.086,0.234,4.66c0.158,0.57,0.44,1.025,0.854,1.358c0.412,0.333,0.935,0.499,1.568,0.499
			c0.725,0,1.374-0.224,1.945-0.668c0.573-0.448,0.967-1.004,1.178-1.664c0.211-0.663,0.316-2.285,0.316-4.864v-7.603h4.239v18.021
			H271.211z"/>
		<path fill="#FFFFFF" d="M277.715,64.59v-4.413h4.238v4.413H277.715z M277.715,85.053V67.031h4.238v18.021H277.715z"/>
		<path fill="#FFFFFF" d="M291.823,67.031v3.801h-2.896v7.265c0,1.472,0.025,2.325,0.082,2.573c0.053,0.238,0.18,0.44,0.376,0.598
			c0.196,0.162,0.437,0.24,0.716,0.24c0.393,0,0.961-0.153,1.707-0.457l0.361,3.699c-0.984,0.474-2.104,0.713-3.35,0.713
			c-0.766,0-1.453-0.145-2.067-0.432c-0.612-0.288-1.063-0.662-1.35-1.121c-0.286-0.457-0.486-1.078-0.595-1.861
			c-0.092-0.551-0.136-1.674-0.136-3.36v-7.856h-1.948v-3.801h1.948v-3.58l4.255-2.781v6.361H291.823z"/>
		<path fill="#FFFFFF" d="M302.186,79.318l4.227,0.797c-0.541,1.744-1.4,3.068-2.572,3.98c-1.172,0.908-2.639,1.367-4.398,1.367
			c-2.785,0-4.847-1.023-6.184-3.072c-1.057-1.639-1.584-3.711-1.584-6.211c0-2.992,0.693-5.328,2.082-7.021
			c1.385-1.689,3.143-2.535,5.266-2.535c2.383,0,4.262,0.887,5.641,2.657c1.377,1.77,2.037,4.483,1.977,8.138H296.02
			c0.029,1.414,0.369,2.512,1.023,3.299c0.655,0.787,1.468,1.182,2.444,1.182c0.665,0,1.222-0.202,1.674-0.611
			C301.613,80.877,301.956,80.221,302.186,79.318z M302.43,74.5c-0.031-1.379-0.348-2.43-0.952-3.149
			c-0.602-0.72-1.337-1.079-2.201-1.079c-0.927,0-1.691,0.382-2.293,1.138c-0.603,0.761-0.9,1.788-0.888,3.091H302.43z"/>
		<path fill="#FFFFFF" d="M322.207,72.361l-4.177,0.85c-0.142-0.942-0.46-1.649-0.959-2.123c-0.496-0.476-1.145-0.713-1.938-0.713
			c-1.055,0-1.897,0.412-2.525,1.228c-0.63,0.82-0.943,2.194-0.943,4.12c0,2.137,0.318,3.648,0.957,4.527
			c0.639,0.883,1.494,1.325,2.573,1.325c0.805,0,1.463-0.257,1.976-0.772c0.513-0.514,0.877-1.4,1.088-2.656l4.162,0.801
			c-0.434,2.147-1.262,3.772-2.488,4.87s-2.871,1.646-4.934,1.646c-2.344,0-4.211-0.832-5.606-2.496
			c-1.392-1.661-2.088-3.965-2.088-6.903c0-2.979,0.698-5.296,2.099-6.954c1.395-1.656,3.287-2.486,5.671-2.486
			c1.949,0,3.502,0.475,4.651,1.42C320.877,68.982,321.704,70.426,322.207,72.361z"/>
		<path fill="#FFFFFF" d="M330.914,67.031v3.801h-2.896v7.265c0,1.472,0.027,2.325,0.084,2.573c0.056,0.238,0.18,0.44,0.379,0.598
			c0.195,0.162,0.433,0.24,0.715,0.24c0.392,0,0.96-0.153,1.703-0.457l0.363,3.699c-0.985,0.474-2.102,0.713-3.349,0.713
			c-0.764,0-1.454-0.145-2.067-0.432c-0.613-0.288-1.062-0.662-1.35-1.121c-0.287-0.457-0.485-1.078-0.596-1.861
			c-0.091-0.551-0.135-1.674-0.135-3.36v-7.856h-1.947v-3.801h1.947v-3.58l4.252-2.781v6.361H330.914z"/>
		<path fill="#FFFFFF" d="M331.021,75.787c0-1.582,0.35-3.115,1.043-4.598c0.692-1.484,1.675-2.613,2.949-3.395
			c1.271-0.781,2.693-1.172,4.262-1.172c2.422,0,4.409,0.887,5.959,2.657c1.547,1.77,2.322,4.011,2.322,6.711
			c0,2.726-0.782,4.989-2.344,6.78c-1.566,1.795-3.535,2.691-5.908,2.691c-1.47,0-2.869-0.375-4.201-1.119
			c-1.333-0.75-2.347-1.844-3.039-3.283C331.371,79.616,331.021,77.859,331.021,75.787z M335.367,76.045
			c0,1.785,0.377,3.152,1.131,4.105c0.754,0.951,1.686,1.425,2.791,1.425c1.106,0,2.033-0.474,2.783-1.425
			c0.75-0.953,1.125-2.33,1.125-4.137c0-1.771-0.375-3.127-1.125-4.074c-0.75-0.954-1.677-1.426-2.783-1.426
			c-1.105,0-2.037,0.472-2.791,1.426C335.744,72.887,335.367,74.253,335.367,76.045z M337.148,64.822l2.08-5.072h4.752l-4.147,5.072
			H337.148z"/>
		<path fill="#FFFFFF" d="M363.627,85.053h-4.242v-9.193c0-1.948-0.089-3.207-0.27-3.779c-0.182-0.568-0.478-1.014-0.884-1.334
			c-0.406-0.313-0.897-0.475-1.471-0.475c-0.733,0-1.394,0.228-1.978,0.68c-0.583,0.453-0.982,1.053-1.199,1.798
			c-0.215,0.749-0.324,2.128-0.324,4.142v8.162h-4.238V67.031h3.937v2.646c1.398-2.034,3.159-3.054,5.28-3.054
			c0.936,0,1.789,0.189,2.564,0.567c0.773,0.384,1.361,0.868,1.76,1.454c0.396,0.588,0.67,1.256,0.828,2.002
			c0.154,0.748,0.236,1.814,0.236,3.207V85.053z"/>
		<path fill="#FFFFFF" d="M366.102,64.59v-4.413h4.239v4.413H366.102z M366.102,85.053V67.031h4.239v18.021H366.102z"/>
		<path fill="#FFFFFF" d="M386.832,72.361l-4.18,0.85c-0.14-0.942-0.457-1.649-0.959-2.123c-0.496-0.476-1.143-0.713-1.936-0.713
			c-1.059,0-1.901,0.412-2.526,1.228c-0.63,0.82-0.944,2.194-0.944,4.12c0,2.137,0.317,3.648,0.957,4.527
			c0.639,0.883,1.496,1.325,2.571,1.325c0.805,0,1.464-0.257,1.976-0.772c0.514-0.514,0.877-1.4,1.087-2.656l4.165,0.801
			c-0.434,2.147-1.264,3.772-2.489,4.87c-1.228,1.098-2.872,1.646-4.934,1.646c-2.343,0-4.212-0.832-5.604-2.496
			c-1.392-1.661-2.088-3.965-2.088-6.903c0-2.979,0.697-5.296,2.096-6.954c1.396-1.656,3.288-2.486,5.674-2.486
			c1.949,0,3.5,0.475,4.651,1.42C385.502,68.982,386.326,70.426,386.832,72.361z"/>
		<path fill="#FFFFFF" d="M391.359,72.531l-3.848-0.781c0.434-1.744,1.177-3.032,2.234-3.868c1.055-0.838,2.624-1.259,4.705-1.259
			c1.891,0,3.298,0.254,4.225,0.756c0.927,0.506,1.577,1.144,1.955,1.917c0.377,0.774,0.563,2.198,0.563,4.269l-0.044,5.564
			c0,1.585,0.068,2.753,0.201,3.504c0.137,0.756,0.391,1.562,0.764,2.42h-4.195c-0.109-0.312-0.246-0.783-0.405-1.407
			c-0.071-0.282-0.122-0.468-0.153-0.558c-0.721,0.791-1.496,1.383-2.32,1.783c-0.825,0.394-1.707,0.592-2.639,0.592
			c-1.652,0-2.951-0.502-3.902-1.51c-0.948-1.012-1.426-2.279-1.426-3.818c0-1.021,0.218-1.93,0.648-2.727
			c0.434-0.797,1.04-1.408,1.819-1.834c0.778-0.422,1.902-0.794,3.372-1.107c1.979-0.418,3.352-0.812,4.117-1.17V72.82
			c0-0.916-0.201-1.572-0.604-1.959c-0.401-0.395-1.16-0.59-2.277-0.59c-0.754,0-1.342,0.168-1.766,0.503
			C391.961,71.105,391.619,71.692,391.359,72.531z M397.031,76.4c-0.542,0.201-1.401,0.444-2.58,0.729
			c-1.178,0.284-1.945,0.561-2.308,0.828c-0.553,0.446-0.829,1.007-0.829,1.683c0,0.67,0.22,1.246,0.662,1.732
			c0.443,0.486,1.006,0.729,1.691,0.729c0.764,0,1.492-0.282,2.188-0.847c0.513-0.437,0.848-0.958,1.009-1.582
			c0.11-0.406,0.167-1.181,0.167-2.326V76.4z"/>
	</g>
	<path fill="#717271" d="M0,0h210v100H0V0z M109.453,60.055c-0.127-1.352-0.19-4.705-0.19-10.054c0-9.862,0.858-16.018,2.575-18.466
		c2.162-3.027,5.252-4.546,9.256-4.546c6.044,0,9.863,3.257,11.453,9.765H146c-1.145-7.024-3.959-12.403-8.443-16.145
		C133.07,16.869,127.55,15,121.002,15c-7.254,0-13.359,2.515-18.322,7.54c-3.053,3.093-5.027,7.062-5.918,11.895
		C96.252,37.27,96,42.458,96,50.001c0,7.54,0.252,12.729,0.762,15.567c0.891,4.834,2.865,8.793,5.918,11.892
		c4.963,5.025,11.068,7.54,18.322,7.54c6.486,0,11.925-1.838,16.314-5.512c4.643-3.802,7.539-9.216,8.684-16.24h-13.453
		c-1.59,6.506-5.409,9.761-11.453,9.761c-3.562,0-6.393-1.19-8.492-3.576C110.947,67.502,109.898,64.371,109.453,60.055
		 M166.278,60.055c-0.129-1.162-0.188-4.512-0.188-10.054c0-5.545,0.06-8.896,0.188-10.056c0.376-4.254,1.383-7.349,3.022-9.283
		c2.139-2.448,4.938-3.673,8.398-3.673c6.484,0,10.508,3.356,12.085,10.058H203c-1.008-6.316-3.492-11.442-7.454-15.374
		C190.958,17.222,185.012,15,177.717,15c-7.17,0-13.207,2.515-18.113,7.54c-3.02,3.093-4.968,7.062-5.849,11.895
		C153.253,37.27,153,42.458,153,50.001c0,7.54,0.252,12.729,0.754,15.567c0.879,4.834,2.825,8.793,5.839,11.892
		c4.894,5.025,10.921,7.54,18.079,7.54c7.723,0,14.029-2.617,18.924-7.85c4.271-4.588,6.404-11.6,6.404-21.037V46.035h-25.328v11.31
		h12.336v2.614c0,3.865-1.007,6.928-3.016,9.185c-2.261,2.575-5.365,3.865-9.32,3.865c-3.52,0-6.309-1.19-8.383-3.576
		C167.658,67.502,166.654,64.371,166.278,60.055"/>
</g>
</svg>
