<?xml version="1.0" encoding="utf-8"?>
<!-- Generator: Adobe Illustrator 16.0.0, SVG Export Plug-In . SVG Version: 6.00 Build 0)  -->
<!DOCTYPE svg PUBLIC "-//W3C//DTD SVG 1.1//EN" "http://www.w3.org/Graphics/SVG/1.1/DTD/svg11.dtd">
<svg version="1.1" id="Layer_1" xmlns="http://www.w3.org/2000/svg" xmlns:xlink="http://www.w3.org/1999/xlink" x="0px" y="0px"
	 width="300px" height="72px" viewBox="0 0 300 72" enable-background="new 0 0 300 72" xml:space="preserve">
<g>
	<rect x="150" fill="none" width="150" height="72"/>
	<g id="Innovación_2_">
		<path fill="#FFE900" d="M155,24.992v-3.154h3.026v3.154H155z M155,39.609V26.733h3.026v12.876H155z"/>
		<path fill="#FFE900" d="M170.238,39.609h-3.027v-6.572c0-1.387-0.065-2.288-0.193-2.695c-0.132-0.411-0.341-0.725-0.632-0.953
			c-0.291-0.224-0.641-0.338-1.052-0.338c-0.523,0-0.994,0.162-1.41,0.485c-0.417,0.322-0.702,0.751-0.857,1.287
			c-0.155,0.533-0.23,1.517-0.23,2.958v5.829h-3.028V26.733h2.812v1.894c0.998-1.456,2.257-2.181,3.772-2.181
			c0.668,0,1.277,0.133,1.832,0.405c0.553,0.27,0.97,0.615,1.255,1.038c0.285,0.418,0.481,0.896,0.594,1.429
			c0.109,0.534,0.166,1.298,0.166,2.292V39.609z"/>
		<path fill="#FFE900" d="M182.415,39.609h-3.026v-6.572c0-1.387-0.066-2.288-0.193-2.695c-0.13-0.411-0.341-0.725-0.632-0.953
			c-0.291-0.224-0.64-0.338-1.05-0.338c-0.527,0-0.996,0.162-1.413,0.485c-0.416,0.322-0.701,0.751-0.855,1.287
			c-0.154,0.533-0.232,1.517-0.232,2.958v5.829h-3.027V26.733h2.812v1.894c0.997-1.456,2.257-2.181,3.771-2.181
			c0.668,0,1.278,0.133,1.832,0.405c0.552,0.27,0.97,0.615,1.255,1.038c0.284,0.418,0.479,0.896,0.594,1.429
			c0.109,0.534,0.165,1.298,0.165,2.292V39.609z"/>
		<path fill="#FFE900" d="M183.485,32.993c0-1.134,0.248-2.229,0.742-3.288c0.496-1.058,1.197-1.867,2.108-2.425
			c0.906-0.558,1.923-0.834,3.043-0.834c1.73,0,3.149,0.633,4.255,1.896c1.106,1.266,1.662,2.861,1.662,4.796
			c0,1.947-0.561,3.561-1.677,4.843c-1.118,1.28-2.523,1.92-4.218,1.92c-1.051,0-2.051-0.268-3.001-0.798
			c-0.953-0.532-1.677-1.316-2.173-2.347C183.733,35.724,183.485,34.468,183.485,32.993z M186.589,33.172
			c0,1.278,0.268,2.254,0.808,2.932c0.539,0.68,1.202,1.02,1.992,1.02c0.791,0,1.452-0.34,1.988-1.02
			c0.536-0.678,0.804-1.664,0.804-2.957c0-1.26-0.268-2.229-0.804-2.91c-0.536-0.679-1.197-1.018-1.988-1.018
			c-0.79,0-1.453,0.339-1.992,1.018C186.856,30.918,186.589,31.897,186.589,33.172z"/>
		<path fill="#FFE900" d="M199.509,39.609l-4.611-12.876h3.18l2.155,6.572l0.624,2.194c0.164-0.556,0.27-0.926,0.312-1.102
			c0.102-0.366,0.208-0.729,0.324-1.092l2.176-6.572h3.114l-4.548,12.876H199.509z"/>
		<path fill="#FFE900" d="M209.576,30.663l-2.749-0.56c0.309-1.242,0.84-2.165,1.597-2.761c0.753-0.599,1.873-0.896,3.36-0.896
			c1.351,0,2.355,0.179,3.017,0.538s1.127,0.819,1.397,1.371c0.268,0.556,0.402,1.57,0.402,3.049l-0.031,3.975
			c0,1.134,0.048,1.966,0.144,2.503c0.098,0.54,0.279,1.116,0.544,1.729h-2.993c-0.08-0.227-0.178-0.564-0.293-1.008
			c-0.049-0.201-0.085-0.334-0.106-0.4c-0.518,0.566-1.071,0.989-1.66,1.273s-1.217,0.425-1.886,0.425
			c-1.178,0-2.106-0.358-2.784-1.078c-0.68-0.719-1.02-1.628-1.02-2.728c0-0.726,0.154-1.375,0.464-1.944
			c0.308-0.569,0.741-1.006,1.299-1.311c0.556-0.304,1.358-0.567,2.408-0.795c1.415-0.296,2.395-0.576,2.941-0.836v-0.338
			c0-0.654-0.145-1.12-0.431-1.399c-0.287-0.279-0.829-0.418-1.628-0.418c-0.537,0-0.958,0.12-1.261,0.354
			C210.007,29.648,209.762,30.066,209.576,30.663z M213.627,33.429c-0.389,0.144-1.001,0.317-1.843,0.521
			c-0.84,0.201-1.39,0.398-1.647,0.594c-0.396,0.314-0.595,0.713-0.595,1.2c0,0.476,0.157,0.887,0.475,1.235
			c0.315,0.348,0.717,0.521,1.207,0.521c0.547,0,1.067-0.202,1.563-0.606c0.365-0.307,0.605-0.681,0.722-1.129
			c0.078-0.291,0.118-0.841,0.118-1.658V33.429z"/>
		<path fill="#FFE900" d="M228.239,30.539l-2.984,0.609c-0.102-0.67-0.329-1.175-0.685-1.514c-0.355-0.341-0.817-0.512-1.384-0.512
			c-0.755,0-1.356,0.295-1.806,0.88c-0.449,0.588-0.672,1.565-0.672,2.94c0,1.526,0.227,2.606,0.684,3.236
			c0.455,0.631,1.067,0.946,1.836,0.946c0.575,0,1.045-0.185,1.411-0.553c0.367-0.366,0.626-0.999,0.776-1.895l2.974,0.569
			c-0.309,1.535-0.9,2.695-1.777,3.479c-0.876,0.784-2.052,1.175-3.523,1.175c-1.674,0-3.008-0.595-4.004-1.783
			c-0.993-1.184-1.49-2.829-1.49-4.933c0-2.125,0.498-3.78,1.497-4.965c0.997-1.181,2.35-1.773,4.051-1.773
			c1.395,0,2.501,0.336,3.325,1.011C227.291,28.132,227.88,29.159,228.239,30.539z"/>
		<path fill="#FFE900" d="M229.212,24.992v-3.154h3.027v3.154H229.212z M229.212,39.609V26.733h3.027v12.876H229.212z"/>
		<path fill="#FFE900" d="M233.34,32.993c0-1.134,0.248-2.229,0.744-3.288c0.493-1.058,1.194-1.867,2.106-2.425
			c0.908-0.558,1.922-0.834,3.042-0.834c1.733,0,3.15,0.633,4.257,1.896c1.106,1.266,1.66,2.861,1.66,4.796
			c0,1.947-0.561,3.561-1.676,4.843c-1.116,1.28-2.522,1.92-4.22,1.92c-1.048,0-2.048-0.268-2.999-0.798
			c-0.953-0.532-1.678-1.316-2.171-2.347C233.588,35.724,233.34,34.468,233.34,32.993z M236.442,33.172
			c0,1.278,0.27,2.254,0.81,2.932c0.538,0.68,1.201,1.02,1.992,1.02c0.789,0,1.452-0.34,1.987-1.02
			c0.536-0.678,0.805-1.664,0.805-2.957c0-1.26-0.269-2.229-0.805-2.91c-0.535-0.679-1.198-1.018-1.987-1.018
			c-0.791,0-1.454,0.339-1.992,1.018C236.712,30.918,236.442,31.897,236.442,33.172z M237.715,25.161l1.485-3.625h3.396
			l-2.965,3.625H237.715z"/>
		<path fill="#FFE900" d="M256.629,39.609H253.6v-6.572c0-1.387-0.065-2.288-0.194-2.695c-0.131-0.411-0.339-0.725-0.631-0.953
			c-0.29-0.224-0.643-0.338-1.05-0.338c-0.524,0-0.996,0.162-1.412,0.485c-0.417,0.322-0.702,0.751-0.856,1.287
			c-0.153,0.533-0.231,1.517-0.231,2.958v5.829h-3.027V26.733h2.811v1.894c1.001-1.456,2.258-2.181,3.772-2.181
			c0.668,0,1.279,0.133,1.832,0.405c0.554,0.27,0.972,0.615,1.256,1.038c0.281,0.418,0.479,0.896,0.592,1.429
			c0.112,0.534,0.169,1.298,0.169,2.292V39.609z"/>
	</g>
	<g id="Arquitectónica_2_">
		<path fill="#FFFFFF" d="M158.062,52.094l-2.749-0.558c0.309-1.246,0.84-2.166,1.595-2.764c0.754-0.599,1.875-0.898,3.362-0.898
			c1.35,0,2.355,0.181,3.017,0.539c0.662,0.361,1.127,0.817,1.397,1.37c0.268,0.553,0.402,1.569,0.402,3.049l-0.032,3.975
			c0,1.132,0.048,1.966,0.146,2.503c0.096,0.539,0.277,1.115,0.542,1.729h-2.995c-0.079-0.224-0.175-0.56-0.288-1.006
			c-0.052-0.201-0.088-0.334-0.11-0.398c-0.518,0.565-1.071,0.988-1.66,1.274c-0.589,0.281-1.217,0.423-1.885,0.423
			c-1.178,0-2.106-0.359-2.785-1.079c-0.679-0.723-1.02-1.628-1.02-2.728c0-0.729,0.155-1.378,0.463-1.947
			c0.309-0.569,0.742-1.006,1.301-1.31c0.556-0.302,1.357-0.567,2.407-0.791c1.416-0.299,2.396-0.581,2.942-0.836V52.3
			c0-0.654-0.145-1.123-0.431-1.398c-0.289-0.282-0.829-0.422-1.628-0.422c-0.539,0-0.959,0.12-1.26,0.359
			C158.493,51.075,158.248,51.494,158.062,52.094z M162.113,54.857c-0.389,0.144-1.003,0.317-1.843,0.521
			c-0.841,0.202-1.39,0.4-1.648,0.591c-0.396,0.319-0.594,0.72-0.594,1.202c0,0.479,0.158,0.89,0.476,1.237
			c0.315,0.348,0.716,0.521,1.207,0.521c0.545,0,1.066-0.202,1.561-0.605c0.367-0.312,0.607-0.684,0.722-1.13
			c0.08-0.29,0.12-0.843,0.12-1.661V54.857z"/>
		<path fill="#FFFFFF" d="M169.646,61.038h-3.026V48.165h2.812v1.833c0.48-0.866,0.914-1.438,1.298-1.71
			c0.385-0.276,0.821-0.414,1.31-0.414c0.69,0,1.354,0.216,1.995,0.644l-0.938,2.968c-0.511-0.369-0.985-0.558-1.423-0.558
			c-0.424,0-0.784,0.135-1.079,0.396c-0.295,0.264-0.526,0.738-0.695,1.425c-0.168,0.686-0.253,2.125-0.253,4.312V61.038z"/>
		<path fill="#FFFFFF" d="M181.49,65.938v-6.475c-0.396,0.573-0.888,1.027-1.477,1.361c-0.589,0.337-1.225,0.506-1.907,0.506
			c-1.3,0-2.371-0.552-3.21-1.648c-0.991-1.286-1.488-3.027-1.488-5.226c0-2.068,0.465-3.683,1.396-4.843
			c0.93-1.159,2.084-1.74,3.465-1.74c0.76,0,1.42,0.184,1.979,0.544c0.555,0.366,1.048,0.915,1.48,1.65v-1.903h2.791v17.773H181.49z
			 M181.588,54.446c0-1.32-0.24-2.297-0.719-2.941c-0.478-0.644-1.075-0.963-1.794-0.963c-0.731,0-1.345,0.327-1.836,0.981
			c-0.492,0.655-0.738,1.69-0.738,3.115c0,1.414,0.237,2.436,0.711,3.061c0.474,0.628,1.06,0.941,1.757,0.941
			c0.695,0,1.307-0.353,1.831-1.057C181.324,56.882,181.588,55.836,181.588,54.446z"/>
		<path fill="#FFFFFF" d="M193.722,61.038v-1.924c-0.417,0.685-0.965,1.227-1.643,1.622c-0.68,0.395-1.396,0.595-2.15,0.595
			c-0.769,0-1.458-0.19-2.068-0.571c-0.611-0.378-1.053-0.913-1.326-1.599c-0.273-0.688-0.41-1.637-0.41-2.85v-8.146h3.027v5.915
			c0,1.812,0.058,2.919,0.168,3.329c0.113,0.407,0.314,0.732,0.609,0.97c0.295,0.238,0.668,0.356,1.12,0.356
			c0.518,0,0.981-0.159,1.39-0.477c0.409-0.32,0.69-0.717,0.842-1.188c0.15-0.474,0.226-1.633,0.226-3.475v-5.431h3.028v12.873
			H193.722z"/>
		<path fill="#FFFFFF" d="M198.368,46.421V43.27h3.027v3.151H198.368z M198.368,61.038V48.165h3.027v12.873H198.368z"/>
		<path fill="#FFFFFF" d="M208.445,48.165v2.715h-2.068v5.189c0,1.051,0.019,1.66,0.059,1.838c0.038,0.17,0.128,0.314,0.269,0.427
			c0.141,0.116,0.312,0.172,0.512,0.172c0.28,0,0.686-0.109,1.219-0.327l0.258,2.643c-0.703,0.339-1.502,0.51-2.393,0.51
			c-0.547,0-1.037-0.104-1.477-0.309c-0.438-0.206-0.76-0.473-0.964-0.801c-0.204-0.326-0.348-0.771-0.425-1.33
			c-0.065-0.393-0.097-1.195-0.097-2.399V50.88h-1.392v-2.715h1.392v-2.557l3.039-1.987v4.544H208.445z"/>
		<path fill="#FFFFFF" d="M215.847,56.941l3.02,0.569c-0.387,1.246-1.001,2.191-1.838,2.844c-0.837,0.648-1.885,0.977-3.142,0.977
			c-1.989,0-3.462-0.731-4.417-2.195c-0.755-1.17-1.131-2.65-1.131-4.436c0-2.138,0.495-3.807,1.486-5.016
			c0.989-1.207,2.245-1.811,3.762-1.811c1.702,0,3.044,0.633,4.029,1.897c0.983,1.264,1.455,3.202,1.411,5.812h-7.585
			c0.021,1.011,0.264,1.794,0.731,2.356s1.048,0.844,1.746,0.844c0.475,0,0.872-0.144,1.195-0.437S215.683,57.586,215.847,56.941z
			 M216.021,53.5c-0.022-0.985-0.249-1.735-0.681-2.25c-0.43-0.514-0.955-0.771-1.572-0.771c-0.662,0-1.208,0.272-1.638,0.812
			c-0.431,0.544-0.643,1.277-0.634,2.208H216.021z"/>
		<path fill="#FFFFFF" d="M230.147,51.973l-2.983,0.606c-0.101-0.673-0.328-1.178-0.685-1.517c-0.354-0.34-0.817-0.509-1.385-0.509
			c-0.753,0-1.355,0.294-1.804,0.877c-0.45,0.586-0.674,1.567-0.674,2.942c0,1.526,0.228,2.606,0.684,3.234
			c0.456,0.63,1.067,0.946,1.838,0.946c0.575,0,1.045-0.184,1.411-0.552c0.366-0.367,0.627-1,0.777-1.897l2.973,0.572
			c-0.31,1.534-0.901,2.694-1.777,3.479s-2.051,1.176-3.523,1.176c-1.675,0-3.008-0.595-4.005-1.783
			c-0.994-1.187-1.491-2.832-1.491-4.931c0-2.129,0.498-3.783,1.499-4.968c0.996-1.183,2.348-1.775,4.051-1.775
			c1.392,0,2.501,0.339,3.322,1.014C229.198,49.559,229.789,50.59,230.147,51.973z"/>
		<path fill="#FFFFFF" d="M236.367,48.165v2.715h-2.069v5.189c0,1.051,0.02,1.66,0.061,1.838c0.04,0.17,0.128,0.314,0.271,0.427
			c0.14,0.116,0.309,0.172,0.511,0.172c0.279,0,0.686-0.109,1.217-0.327l0.259,2.643c-0.703,0.339-1.501,0.51-2.392,0.51
			c-0.546,0-1.039-0.104-1.477-0.309c-0.438-0.206-0.759-0.473-0.964-0.801c-0.205-0.326-0.347-0.771-0.426-1.33
			c-0.064-0.393-0.097-1.195-0.097-2.399V50.88h-1.391v-2.715h1.391v-2.557l3.037-1.987v4.544H236.367z"/>
		<path fill="#FFFFFF" d="M236.444,54.419c0-1.13,0.249-2.225,0.744-3.283c0.495-1.061,1.196-1.867,2.107-2.425
			c0.908-0.559,1.924-0.837,3.044-0.837c1.729,0,3.149,0.633,4.256,1.897c1.105,1.264,1.659,2.865,1.659,4.794
			c0,1.946-0.559,3.563-1.674,4.843c-1.119,1.282-2.525,1.923-4.221,1.923c-1.05,0-2.049-0.269-3.001-0.8
			c-0.952-0.536-1.676-1.317-2.171-2.345C236.693,57.154,236.444,55.899,236.444,54.419z M239.548,54.604
			c0,1.275,0.27,2.252,0.808,2.933c0.539,0.68,1.204,1.018,1.994,1.018s1.452-0.338,1.987-1.018
			c0.536-0.681,0.804-1.664,0.804-2.955c0-1.265-0.268-2.233-0.804-2.91c-0.535-0.682-1.197-1.019-1.987-1.019
			s-1.455,0.337-1.994,1.019C239.817,52.348,239.548,53.323,239.548,54.604z M240.82,46.587l1.485-3.623h3.395l-2.962,3.623H240.82z
			"/>
		<path fill="#FFFFFF" d="M259.733,61.038h-3.03v-6.567c0-1.392-0.063-2.29-0.192-2.699c-0.13-0.406-0.341-0.724-0.631-0.953
			c-0.29-0.224-0.642-0.339-1.051-0.339c-0.523,0-0.995,0.163-1.412,0.485c-0.417,0.324-0.702,0.752-0.857,1.284
			c-0.153,0.535-0.231,1.521-0.231,2.959v5.83h-3.027V48.165h2.812v1.89c0.998-1.453,2.256-2.181,3.771-2.181
			c0.668,0,1.277,0.135,1.831,0.405c0.553,0.273,0.973,0.62,1.258,1.038c0.283,0.42,0.479,0.897,0.591,1.43
			c0.11,0.535,0.169,1.297,0.169,2.291V61.038z"/>
		<path fill="#FFFFFF" d="M261.501,46.421V43.27h3.028v3.151H261.501z M261.501,61.038V48.165h3.028v12.873H261.501z"/>
		<path fill="#FFFFFF" d="M276.309,51.973l-2.985,0.606c-0.1-0.673-0.326-1.178-0.686-1.517c-0.354-0.34-0.815-0.509-1.382-0.509
			c-0.757,0-1.358,0.294-1.805,0.877c-0.45,0.586-0.675,1.567-0.675,2.942c0,1.526,0.227,2.606,0.684,3.234
			c0.456,0.63,1.068,0.946,1.837,0.946c0.574,0,1.046-0.184,1.411-0.552c0.367-0.367,0.626-1,0.776-1.897l2.975,0.572
			c-0.31,1.534-0.902,2.694-1.777,3.479c-0.877,0.784-2.052,1.176-3.524,1.176c-1.674,0-3.009-0.595-4.003-1.783
			c-0.994-1.187-1.491-2.832-1.491-4.931c0-2.129,0.498-3.783,1.496-4.968c0.998-1.183,2.349-1.775,4.053-1.775
			c1.393,0,2.5,0.339,3.323,1.014C275.358,49.559,275.947,50.59,276.309,51.973z"/>
		<path fill="#FFFFFF" d="M279.542,52.094l-2.748-0.558c0.31-1.246,0.841-2.166,1.596-2.764c0.754-0.599,1.875-0.898,3.361-0.898
			c1.351,0,2.355,0.181,3.018,0.539c0.662,0.361,1.126,0.817,1.396,1.37c0.27,0.553,0.402,1.569,0.402,3.049l-0.031,3.975
			c0,1.132,0.049,1.966,0.144,2.503c0.098,0.539,0.279,1.115,0.546,1.729h-2.997c-0.078-0.224-0.176-0.56-0.289-1.006
			c-0.052-0.201-0.088-0.334-0.11-0.398c-0.515,0.565-1.068,0.988-1.657,1.274c-0.589,0.281-1.219,0.423-1.885,0.423
			c-1.18,0-2.107-0.359-2.787-1.079c-0.678-0.723-1.019-1.628-1.019-2.728c0-0.729,0.155-1.378,0.463-1.947
			c0.311-0.569,0.743-1.006,1.3-1.31c0.556-0.302,1.359-0.567,2.409-0.791c1.413-0.299,2.394-0.581,2.94-0.836V52.3
			c0-0.654-0.144-1.123-0.431-1.398c-0.287-0.282-0.829-0.422-1.627-0.422c-0.539,0-0.959,0.12-1.262,0.359
			C279.972,51.075,279.728,51.494,279.542,52.094z M283.594,54.857c-0.387,0.144-1.001,0.317-1.843,0.521
			c-0.842,0.202-1.39,0.4-1.648,0.591c-0.395,0.319-0.592,0.72-0.592,1.202c0,0.479,0.156,0.89,0.473,1.237s0.719,0.521,1.208,0.521
			c0.546,0,1.065-0.202,1.562-0.605c0.366-0.312,0.605-0.684,0.721-1.13c0.079-0.29,0.119-0.843,0.119-1.661V54.857z"/>
	</g>
	<path fill="#717271" d="M0,0.286h150v71.428H0V0.286z M78.181,43.182c-0.09-0.965-0.136-3.36-0.136-7.181
		c0-7.044,0.613-11.441,1.839-13.189c1.544-2.163,3.751-3.248,6.611-3.248c4.317,0,7.045,2.326,8.181,6.975h9.609
		c-0.817-5.018-2.828-8.859-6.031-11.532C95.05,12.335,91.107,11,86.43,11c-5.182,0-9.542,1.796-13.087,5.386
		c-2.181,2.209-3.591,5.044-4.227,8.497c-0.364,2.025-0.544,5.73-0.544,11.118c0,5.386,0.18,9.092,0.544,11.12
		c0.636,3.453,2.046,6.281,4.227,8.494C76.888,59.204,81.249,61,86.43,61c4.633,0,8.518-1.312,11.653-3.937
		c3.316-2.716,5.385-6.583,6.203-11.601h-9.609c-1.136,4.647-3.864,6.972-8.181,6.972c-2.545,0-4.566-0.85-6.066-2.554
		C79.248,48.501,78.499,46.265,78.181,43.182 M118.77,43.182c-0.092-0.83-0.134-3.223-0.134-7.181c0-3.96,0.042-6.354,0.134-7.183
		c0.269-3.039,0.988-5.249,2.159-6.631c1.527-1.749,3.527-2.624,5.999-2.624c4.631,0,7.505,2.397,8.632,7.184H145
		c-0.72-4.512-2.495-8.173-5.324-10.981C136.398,12.587,132.151,11,126.94,11c-5.121,0-9.434,1.796-12.938,5.386
		c-2.157,2.209-3.548,5.044-4.178,8.497c-0.358,2.025-0.539,5.73-0.539,11.118c0,5.386,0.18,9.092,0.539,11.12
		c0.628,3.453,2.018,6.281,4.17,8.494c3.496,3.59,7.801,5.386,12.914,5.386c5.516,0,10.021-1.869,13.517-5.606
		c3.051-3.277,4.575-8.286,4.575-15.027v-7.199h-18.091v8.079h8.811v1.867c0,2.761-0.719,4.948-2.154,6.561
		c-1.615,1.84-3.833,2.761-6.657,2.761c-2.514,0-4.506-0.85-5.988-2.554C119.756,48.501,119.039,46.265,118.77,43.182"/>
</g>
</svg>
