<?xml version="1.0" encoding="utf-8"?>
<!-- Generator: Adobe Illustrator 16.0.0, SVG Export Plug-In . SVG Version: 6.00 Build 0)  -->
<!DOCTYPE svg PUBLIC "-//W3C//DTD SVG 1.1//EN" "http://www.w3.org/Graphics/SVG/1.1/DTD/svg11.dtd">
<svg version="1.1" id="Layer_1" xmlns="http://www.w3.org/2000/svg" xmlns:xlink="http://www.w3.org/1999/xlink" x="0px" y="0px"
	 width="300px" height="72px" viewBox="0 0 300 72" enable-background="new 0 0 300 72" xml:space="preserve">
<g>
	<rect x="150" fill="none" width="151" height="72"/>
	<g id="Innovación_8_">
		<path fill="#717271" d="M155.04,24.904v-3.18h3.052v3.18H155.04z M155.04,39.639v-12.98h3.052v12.98H155.04z"/>
		<path fill="#717271" d="M170.4,39.639h-3.053v-6.625c0-1.398-0.064-2.306-0.194-2.716c-0.132-0.414-0.343-0.73-0.637-0.96
			c-0.292-0.226-0.646-0.341-1.06-0.341c-0.528,0-1.002,0.164-1.422,0.489c-0.42,0.324-0.707,0.757-0.864,1.297
			c-0.155,0.538-0.231,1.529-0.231,2.982v5.875h-3.053v-12.98h2.834v1.909c1.006-1.467,2.274-2.199,3.803-2.199
			c0.672,0,1.287,0.134,1.847,0.408c0.557,0.272,0.978,0.62,1.264,1.046c0.288,0.422,0.485,0.903,0.599,1.44
			c0.111,0.539,0.168,1.309,0.168,2.311V39.639z"/>
		<path fill="#717271" d="M182.674,39.639h-3.051v-6.625c0-1.398-0.066-2.306-0.194-2.716c-0.131-0.414-0.343-0.73-0.636-0.96
			c-0.293-0.226-0.645-0.341-1.06-0.341c-0.53,0-1.003,0.164-1.424,0.489c-0.42,0.324-0.708,0.757-0.862,1.297
			c-0.156,0.538-0.234,1.529-0.234,2.982v5.875h-3.052v-12.98h2.835v1.909c1.006-1.467,2.275-2.199,3.802-2.199
			c0.674,0,1.289,0.134,1.847,0.408c0.556,0.272,0.979,0.62,1.265,1.046c0.287,0.422,0.483,0.903,0.6,1.44
			c0.108,0.539,0.165,1.309,0.165,2.311V39.639z"/>
		<path fill="#717271" d="M183.754,32.969c0-1.143,0.25-2.248,0.748-3.314c0.5-1.067,1.207-1.882,2.125-2.444
			c0.913-0.562,1.938-0.841,3.068-0.841c1.742,0,3.174,0.639,4.288,1.911c1.114,1.276,1.675,2.884,1.675,4.834
			c0,1.962-0.565,3.589-1.69,4.881c-1.126,1.291-2.543,1.936-4.251,1.936c-1.059,0-2.067-0.27-3.025-0.805
			c-0.961-0.536-1.689-1.326-2.189-2.365C184.004,35.721,183.754,34.456,183.754,32.969z M186.882,33.15
			c0,1.288,0.271,2.272,0.814,2.956c0.542,0.685,1.212,1.027,2.007,1.027c0.799,0,1.465-0.342,2.005-1.027
			c0.54-0.684,0.811-1.677,0.811-2.98c0-1.27-0.271-2.247-0.811-2.933c-0.54-0.685-1.206-1.026-2.005-1.026
			c-0.795,0-1.465,0.341-2.007,1.026C187.152,30.878,186.882,31.864,186.882,33.15z"/>
		<path fill="#717271" d="M199.905,39.639l-4.648-12.98h3.206l2.172,6.625l0.629,2.212c0.165-0.56,0.271-0.933,0.314-1.111
			c0.103-0.369,0.21-0.735,0.326-1.101l2.194-6.625h3.139l-4.585,12.98H199.905z"/>
		<path fill="#717271" d="M210.053,30.621l-2.77-0.565c0.311-1.251,0.846-2.182,1.607-2.783c0.76-0.604,1.89-0.904,3.389-0.904
			c1.361,0,2.375,0.18,3.041,0.542s1.135,0.826,1.408,1.382c0.27,0.56,0.406,1.582,0.406,3.074l-0.033,4.006
			c0,1.143,0.049,1.981,0.146,2.522c0.098,0.545,0.28,1.126,0.548,1.743h-3.019c-0.08-0.229-0.178-0.569-0.294-1.017
			c-0.05-0.202-0.087-0.336-0.108-0.403c-0.521,0.571-1.08,0.997-1.673,1.283c-0.593,0.287-1.226,0.429-1.901,0.429
			c-1.187,0-2.123-0.361-2.807-1.087c-0.684-0.725-1.026-1.641-1.026-2.75c0-0.732,0.155-1.387,0.466-1.96
			c0.312-0.574,0.748-1.014,1.31-1.321c0.562-0.306,1.37-0.571,2.429-0.802c1.426-0.299,2.414-0.58,2.965-0.843v-0.34
			c0-0.66-0.146-1.129-0.435-1.41c-0.29-0.281-0.835-0.422-1.642-0.422c-0.541,0-0.965,0.121-1.27,0.357
			C210.487,29.598,210.24,30.019,210.053,30.621z M214.137,33.408c-0.392,0.145-1.01,0.32-1.857,0.525
			c-0.848,0.203-1.4,0.401-1.661,0.599c-0.399,0.316-0.599,0.719-0.599,1.21c0,0.479,0.158,0.894,0.478,1.245
			c0.317,0.351,0.724,0.525,1.217,0.525c0.552,0,1.075-0.203,1.576-0.61c0.368-0.309,0.61-0.687,0.728-1.138
			c0.078-0.293,0.119-0.848,0.119-1.671V33.408z"/>
		<path fill="#717271" d="M228.865,30.495l-3.008,0.614c-0.103-0.676-0.332-1.185-0.69-1.526c-0.357-0.344-0.823-0.516-1.395-0.516
			c-0.761,0-1.368,0.297-1.819,0.887c-0.453,0.592-0.679,1.578-0.679,2.963c0,1.539,0.229,2.627,0.688,3.262
			c0.46,0.636,1.076,0.954,1.853,0.954c0.579,0,1.054-0.187,1.423-0.557c0.369-0.369,0.63-1.006,0.781-1.91l2.998,0.574
			c-0.312,1.547-0.908,2.717-1.791,3.507c-0.885,0.791-2.069,1.185-3.553,1.185c-1.688,0-3.031-0.6-4.035-1.798
			c-1.002-1.193-1.503-2.852-1.503-4.972c0-2.143,0.502-3.811,1.509-5.005c1.005-1.19,2.369-1.788,4.084-1.788
			c1.404,0,2.521,0.339,3.352,1.02C227.909,28.069,228.503,29.104,228.865,30.495z"/>
		<path fill="#717271" d="M229.846,24.904v-3.18h3.052v3.18H229.846z M229.846,39.639v-12.98h3.052v12.98H229.846z"/>
		<path fill="#717271" d="M234.007,32.969c0-1.143,0.251-2.248,0.75-3.314c0.497-1.067,1.204-1.882,2.123-2.444
			c0.915-0.562,1.938-0.841,3.067-0.841c1.746,0,3.176,0.639,4.291,1.911c1.114,1.276,1.673,2.884,1.673,4.834
			c0,1.962-0.564,3.589-1.689,4.881c-1.124,1.291-2.542,1.936-4.253,1.936c-1.057,0-2.064-0.27-3.023-0.805
			c-0.961-0.536-1.691-1.326-2.188-2.365C234.258,35.721,234.007,34.456,234.007,32.969z M237.135,33.15
			c0,1.288,0.271,2.272,0.814,2.956c0.543,0.685,1.213,1.027,2.009,1.027s1.464-0.342,2.005-1.027
			c0.539-0.684,0.811-1.677,0.811-2.98c0-1.27-0.271-2.247-0.811-2.933c-0.541-0.685-1.209-1.026-2.005-1.026
			s-1.466,0.341-2.009,1.026C237.406,30.878,237.135,31.864,237.135,33.15z M238.417,25.074l1.497-3.654h3.424l-2.988,3.654H238.417
			z"/>
		<path fill="#717271" d="M257.482,39.639h-3.055v-6.625c0-1.398-0.064-2.306-0.195-2.716c-0.131-0.414-0.341-0.73-0.636-0.96
			c-0.292-0.226-0.647-0.341-1.058-0.341c-0.529,0-1.005,0.164-1.424,0.489c-0.42,0.324-0.708,0.757-0.863,1.297
			c-0.154,0.538-0.233,1.529-0.233,2.982v5.875h-3.052v-12.98h2.834v1.909c1.008-1.467,2.275-2.199,3.803-2.199
			c0.674,0,1.289,0.134,1.846,0.408c0.559,0.272,0.98,0.62,1.266,1.046c0.284,0.422,0.484,0.903,0.598,1.44
			c0.113,0.539,0.17,1.309,0.17,2.311V39.639z"/>
	</g>
	<g id="Arquitectónica_8_">
		<path fill="#717271" d="M158.127,52.223l-2.771-0.562c0.311-1.256,0.847-2.183,1.606-2.785c0.762-0.604,1.891-0.906,3.39-0.906
			c1.361,0,2.374,0.183,3.04,0.544c0.668,0.364,1.137,0.823,1.41,1.381c0.269,0.558,0.404,1.582,0.404,3.073l-0.032,4.007
			c0,1.141,0.049,1.981,0.147,2.522c0.098,0.543,0.28,1.124,0.547,1.742h-3.019c-0.08-0.226-0.177-0.563-0.292-1.014
			c-0.052-0.203-0.088-0.337-0.111-0.401c-0.521,0.569-1.078,0.996-1.673,1.284c-0.593,0.283-1.226,0.427-1.899,0.427
			c-1.188,0-2.123-0.362-2.808-1.088c-0.685-0.729-1.027-1.642-1.027-2.75c0-0.735,0.156-1.389,0.468-1.963
			c0.311-0.573,0.748-1.014,1.31-1.319c0.561-0.305,1.368-0.572,2.427-0.798c1.428-0.301,2.416-0.586,2.967-0.843v-0.343
			c0-0.66-0.146-1.133-0.435-1.41c-0.292-0.284-0.835-0.425-1.642-0.425c-0.543,0-0.967,0.121-1.27,0.362
			C158.561,51.196,158.314,51.618,158.127,52.223z M162.211,55.009c-0.393,0.145-1.012,0.319-1.858,0.525
			c-0.848,0.204-1.401,0.403-1.662,0.596c-0.399,0.321-0.597,0.726-0.597,1.212c0,0.481,0.158,0.896,0.479,1.247
			c0.318,0.351,0.722,0.525,1.216,0.525c0.55,0,1.075-0.204,1.573-0.61c0.371-0.314,0.613-0.689,0.729-1.139
			c0.08-0.293,0.121-0.85,0.121-1.675V55.009z"/>
		<path fill="#717271" d="M169.803,61.238h-3.051V48.263h2.834v1.848c0.484-0.873,0.922-1.45,1.309-1.724
			c0.388-0.279,0.828-0.418,1.32-0.418c0.696,0,1.364,0.218,2.011,0.649l-0.944,2.991c-0.516-0.372-0.994-0.562-1.436-0.562
			c-0.428,0-0.79,0.136-1.087,0.399c-0.297,0.266-0.531,0.744-0.702,1.436c-0.169,0.691-0.254,2.143-0.254,4.348V61.238z"/>
		<path fill="#717271" d="M181.742,66.178v-6.526c-0.398,0.578-0.895,1.036-1.488,1.372c-0.594,0.34-1.234,0.511-1.923,0.511
			c-1.31,0-2.39-0.557-3.235-1.662c-1-1.296-1.5-3.052-1.5-5.268c0-2.085,0.468-3.712,1.406-4.881
			c0.938-1.169,2.102-1.755,3.492-1.755c0.767,0,1.433,0.186,1.995,0.549c0.56,0.369,1.056,0.922,1.491,1.663v-1.918h2.814v17.915
			H181.742z M181.84,54.594c0-1.331-0.241-2.315-0.724-2.965c-0.481-0.648-1.083-0.971-1.808-0.971c-0.738,0-1.356,0.33-1.852,0.989
			c-0.496,0.661-0.744,1.704-0.744,3.141c0,1.425,0.239,2.455,0.717,3.085c0.478,0.633,1.068,0.949,1.771,0.949
			c0.699,0,1.316-0.355,1.845-1.065C181.574,57.049,181.84,55.995,181.84,54.594z"/>
		<path fill="#717271" d="M194.072,61.238v-1.939c-0.42,0.69-0.973,1.237-1.656,1.636c-0.686,0.397-1.408,0.6-2.168,0.6
			c-0.774,0-1.469-0.192-2.085-0.576c-0.616-0.381-1.061-0.921-1.336-1.611c-0.276-0.693-0.413-1.65-0.413-2.873v-8.211h3.051v5.962
			c0,1.827,0.059,2.942,0.17,3.355c0.113,0.411,0.316,0.738,0.613,0.978c0.297,0.24,0.674,0.359,1.13,0.359
			c0.521,0,0.989-0.16,1.4-0.48c0.413-0.322,0.696-0.722,0.849-1.197c0.151-0.478,0.227-1.646,0.227-3.503v-5.474h3.053v12.976
			H194.072z"/>
		<path fill="#717271" d="M198.755,46.504v-3.176h3.052v3.176H198.755z M198.755,61.238V48.263h3.052v12.976H198.755z"/>
		<path fill="#717271" d="M208.913,48.263v2.736h-2.085v5.231c0,1.059,0.019,1.673,0.059,1.853c0.039,0.171,0.13,0.316,0.271,0.43
			c0.141,0.117,0.314,0.173,0.516,0.173c0.282,0,0.691-0.109,1.229-0.329l0.26,2.663c-0.708,0.342-1.514,0.515-2.411,0.515
			c-0.552,0-1.046-0.104-1.488-0.312c-0.44-0.208-0.767-0.477-0.972-0.807c-0.206-0.329-0.351-0.777-0.429-1.341
			c-0.065-0.396-0.098-1.205-0.098-2.419v-5.657h-1.402v-2.736h1.402v-2.577l3.063-2.004v4.581H208.913z"/>
		<path fill="#717271" d="M216.373,57.109l3.044,0.573c-0.39,1.257-1.008,2.209-1.853,2.867c-0.844,0.653-1.899,0.984-3.166,0.984
			c-2.006,0-3.49-0.737-4.453-2.213c-0.76-1.18-1.141-2.672-1.141-4.472c0-2.154,0.5-3.837,1.5-5.056
			c0.997-1.217,2.263-1.825,3.791-1.825c1.715,0,3.068,0.639,4.061,1.913c0.992,1.273,1.467,3.228,1.424,5.859h-7.646
			c0.021,1.019,0.267,1.808,0.737,2.375c0.472,0.566,1.058,0.851,1.761,0.851c0.479,0,0.879-0.145,1.205-0.44
			C215.962,58.231,216.209,57.759,216.373,57.109z M216.549,53.64c-0.021-0.993-0.25-1.749-0.685-2.268
			c-0.433-0.518-0.962-0.776-1.585-0.776c-0.667,0-1.218,0.274-1.65,0.818c-0.434,0.549-0.648,1.288-0.64,2.226H216.549z"/>
		<path fill="#717271" d="M230.789,52.101l-3.007,0.611c-0.103-0.679-0.331-1.188-0.69-1.529c-0.357-0.342-0.824-0.513-1.396-0.513
			c-0.759,0-1.365,0.297-1.817,0.884c-0.454,0.591-0.68,1.58-0.68,2.967c0,1.538,0.229,2.627,0.689,3.26
			c0.46,0.635,1.075,0.954,1.853,0.954c0.579,0,1.053-0.186,1.422-0.557c0.369-0.37,0.632-1.008,0.784-1.912l2.996,0.576
			c-0.312,1.547-0.907,2.717-1.792,3.507c-0.883,0.79-2.066,1.186-3.551,1.186c-1.688,0-3.033-0.6-4.037-1.798
			c-1.002-1.196-1.504-2.854-1.504-4.97c0-2.146,0.504-3.813,1.512-5.008c1.004-1.192,2.366-1.79,4.082-1.79
			c1.404,0,2.521,0.342,3.35,1.022C229.832,49.667,230.428,50.707,230.789,52.101z"/>
		<path fill="#717271" d="M237.059,48.263v2.736h-2.086v5.231c0,1.059,0.02,1.673,0.061,1.853c0.041,0.171,0.13,0.316,0.273,0.43
			c0.141,0.117,0.311,0.173,0.515,0.173c0.282,0,0.69-0.109,1.226-0.329l0.262,2.663c-0.709,0.342-1.514,0.515-2.41,0.515
			c-0.551,0-1.047-0.104-1.488-0.312c-0.442-0.208-0.766-0.477-0.973-0.807c-0.207-0.329-0.35-0.777-0.429-1.341
			c-0.065-0.396-0.097-1.205-0.097-2.419v-5.657h-1.402v-2.736h1.402v-2.577l3.061-2.004v4.581H237.059z"/>
		<path fill="#717271" d="M237.136,54.566c0-1.139,0.252-2.242,0.751-3.31c0.498-1.069,1.206-1.882,2.123-2.444
			c0.916-0.562,1.939-0.844,3.068-0.844c1.744,0,3.175,0.639,4.291,1.913c1.113,1.273,1.672,2.888,1.672,4.832
			c0,1.962-0.562,3.592-1.688,4.882c-1.127,1.292-2.545,1.938-4.254,1.938c-1.059,0-2.065-0.271-3.024-0.807
			c-0.96-0.54-1.69-1.328-2.188-2.363C237.388,57.323,237.136,56.059,237.136,54.566z M240.265,54.752
			c0,1.286,0.271,2.271,0.814,2.957c0.542,0.685,1.214,1.025,2.009,1.025c0.797,0,1.465-0.341,2.005-1.025
			c0.54-0.687,0.81-1.678,0.81-2.979c0-1.274-0.27-2.251-0.81-2.934c-0.54-0.687-1.208-1.026-2.005-1.026
			c-0.795,0-1.467,0.34-2.009,1.026C240.536,52.479,240.265,53.462,240.265,54.752z M241.547,46.672l1.498-3.652h3.422l-2.986,3.652
			H241.547z"/>
		<path fill="#717271" d="M260.611,61.238h-3.054v-6.62c0-1.402-0.063-2.308-0.194-2.721c-0.131-0.409-0.344-0.729-0.637-0.961
			c-0.292-0.225-0.646-0.341-1.059-0.341c-0.527,0-1.004,0.164-1.424,0.489c-0.42,0.326-0.707,0.758-0.863,1.294
			c-0.154,0.54-0.232,1.533-0.232,2.982v5.877h-3.053V48.263h2.834v1.904c1.008-1.465,2.275-2.198,3.803-2.198
			c0.674,0,1.288,0.136,1.846,0.409c0.557,0.275,0.98,0.625,1.268,1.046c0.285,0.424,0.482,0.905,0.596,1.441
			c0.111,0.539,0.17,1.308,0.17,2.31V61.238z"/>
		<path fill="#717271" d="M262.394,46.504v-3.176h3.053v3.176H262.394z M262.394,61.238V48.263h3.053v12.976H262.394z"/>
		<path fill="#717271" d="M277.32,52.101l-3.01,0.611c-0.102-0.679-0.33-1.188-0.69-1.529c-0.357-0.342-0.823-0.513-1.394-0.513
			c-0.763,0-1.369,0.297-1.819,0.884c-0.454,0.591-0.681,1.58-0.681,2.967c0,1.538,0.229,2.627,0.689,3.26
			c0.461,0.635,1.078,0.954,1.852,0.954c0.58,0,1.055-0.186,1.423-0.557c0.37-0.37,0.632-1.008,0.782-1.912l2.999,0.576
			c-0.312,1.547-0.91,2.717-1.792,3.507c-0.885,0.79-2.068,1.186-3.553,1.186c-1.687,0-3.032-0.6-4.035-1.798
			c-1.002-1.196-1.504-2.854-1.504-4.97c0-2.146,0.502-3.813,1.51-5.008c1.006-1.192,2.367-1.79,4.085-1.79
			c1.403,0,2.521,0.342,3.349,1.022C276.361,49.667,276.955,50.707,277.32,52.101z"/>
		<path fill="#717271" d="M280.58,52.223l-2.771-0.562c0.312-1.256,0.848-2.183,1.609-2.785c0.76-0.604,1.889-0.906,3.388-0.906
			c1.36,0,2.374,0.183,3.042,0.544c0.666,0.364,1.135,0.823,1.407,1.381c0.271,0.558,0.405,1.582,0.405,3.073l-0.031,4.007
			c0,1.141,0.049,1.981,0.145,2.522c0.099,0.543,0.281,1.124,0.551,1.742h-3.021c-0.078-0.226-0.177-0.563-0.291-1.014
			c-0.052-0.203-0.088-0.337-0.111-0.401c-0.518,0.569-1.077,0.996-1.67,1.284c-0.595,0.283-1.229,0.427-1.9,0.427
			c-1.189,0-2.125-0.362-2.81-1.088c-0.683-0.729-1.026-1.642-1.026-2.75c0-0.735,0.156-1.389,0.467-1.963
			c0.312-0.573,0.748-1.014,1.31-1.319c0.562-0.305,1.37-0.572,2.429-0.798c1.424-0.301,2.412-0.586,2.964-0.843v-0.343
			c0-0.66-0.145-1.133-0.435-1.41c-0.289-0.284-0.836-0.425-1.64-0.425c-0.542,0-0.966,0.121-1.271,0.362
			C281.013,51.196,280.767,51.618,280.58,52.223z M284.663,55.009c-0.39,0.145-1.009,0.319-1.857,0.525
			c-0.849,0.204-1.401,0.403-1.661,0.596c-0.398,0.321-0.598,0.726-0.598,1.212c0,0.481,0.158,0.896,0.477,1.247
			c0.319,0.351,0.725,0.525,1.219,0.525c0.549,0,1.074-0.204,1.574-0.61c0.369-0.314,0.61-0.689,0.727-1.139
			c0.079-0.293,0.12-0.85,0.12-1.675V55.009z"/>
	</g>
	<rect id="Fondo_8_" x="-1.201" y="0" fill="none" width="151.201" height="72"/>
	<path fill="#717271" d="M77.606,43.239c0.321,3.107,1.076,5.361,2.267,6.753c1.512,1.718,3.549,2.574,6.115,2.574
		c4.352,0,7.101-2.343,8.246-7.027h9.687c-0.824,5.058-2.91,8.955-6.252,11.693c-3.161,2.645-7.076,3.968-11.746,3.968
		c-5.223,0-9.619-1.811-13.192-5.429c-2.198-2.23-3.62-5.082-4.261-8.562C68.101,45.166,67.919,41.43,67.919,36
		c0-5.431,0.182-9.166,0.549-11.207c0.641-3.48,2.063-6.337,4.261-8.565c3.573-3.618,7.969-5.429,13.192-5.429
		c4.714,0,8.689,1.346,11.919,4.039c3.229,2.694,5.255,6.566,6.079,11.624h-9.687c-1.145-4.686-3.895-7.031-8.246-7.031
		c-2.883,0-5.107,1.093-6.664,3.273C78.086,24.468,77.469,28.9,77.469,36C77.469,39.852,77.515,42.267,77.606,43.239"/>
	<path fill="#717271" d="M118.52,43.239c-0.092-0.837-0.135-3.249-0.135-7.239c0-3.992,0.043-6.404,0.135-7.24
		c0.271-3.063,0.996-5.291,2.176-6.684c1.54-1.763,3.556-2.645,6.047-2.645c4.668,0,7.565,2.417,8.701,7.241h9.516
		c-0.726-4.548-2.515-8.238-5.367-11.069c-3.304-3.205-7.585-4.804-12.837-4.804c-5.162,0-9.509,1.811-13.042,5.429
		c-2.174,2.228-3.577,5.085-4.211,8.565c-0.361,2.041-0.543,5.776-0.543,11.207c0,5.429,0.181,9.166,0.542,11.208
		c0.633,3.48,2.034,6.332,4.204,8.562c3.523,3.618,7.863,5.429,13.017,5.429c5.561,0,10.101-1.884,13.625-5.651
		c3.075-3.304,4.611-8.353,4.611-15.147v-7.256h-18.236v8.143h8.882v1.882c0,2.783-0.725,4.988-2.171,6.613
		c-1.628,1.854-3.863,2.783-6.711,2.783c-2.534,0-4.542-0.856-6.036-2.574C119.514,48.601,118.791,46.347,118.52,43.239"/>
</g>
</svg>
